# xmcd
#
# Track frame offsets: 
#        150
#        14430
#        26894
#        38676
#        51708
#        64657
#        78057
#        90219
#        102407
#        117866
#        137918
#        149837
#        164926
#        177069
#        191002
#        205887
#
# Disc length: 3044 seconds
#
# Revision: 0
# Processed by: cddbd v1.5.2PL0 Copyright (c) Steve Scherf et al.
# Submitted via: ExactAudioCopyFreeDBPlugin 1.0
#
DISCID=e80be210
DTITLE=Aretha Franklin - Early Years CD1
DYEAR=1900
DGENRE=Soul
TTITLE0=Won't Be Long
TTITLE1=I Surrender Dear
TTITLE2=Exactly Like You
TTITLE3=Blue Holiday
TTITLE4=It Ain't Necessarily So
TTITLE5=Yield Not To Temptation
TTITLE6=Love Is The Onlt Thing
TTITLE7=I'm Sitting on top of the world
TTITLE8=I'm Wandering
TTITLE9=There Is A Fountain Filled With Blood
TTITLE10=(Blue) By Myself
TTITLE11=That Lucky Old Sun
TTITLE12=Are You Sure
TTITLE13=Lokk For The Silver Lining
TTITLE14=Maybe I'm A Fool
TTITLE15=The Day Is Past And Gone
EXTD=
EXTT0=
EXTT1=
EXTT2=
EXTT3=
EXTT4=
EXTT5=
EXTT6=
EXTT7=
EXTT8=
EXTT9=
EXTT10=
EXTT11=
EXTT12=
EXTT13=
EXTT14=
EXTT15=
PLAYORDER=
